<svg xmlns="http://www.w3.org/2000/svg"><style>:root svg:not(:target){display:none}</style><svg viewBox="0 0 16 16" id="cart"><path fill-rule="evenodd" clip-rule="evenodd" d="m5.66 3.88.23 2.79h4.22l.23-2.8a2.35 2.35 0 1 0-4.68 0Zm5.78 2.79.23-2.68a3.68 3.68 0 1 0-7.34 0l.23 2.68H0L.19 8l.82 5.71A2.67 2.67 0 0 0 3.65 16h8.7c1.33 0 2.46-.98 2.64-2.29L15.81 8 16 6.67h-4.55ZM11.34 8h-.06l-.22 2.67h3.02L14.46 8h-3.13Zm-1.4 0H6.06l.22 2.67h3.44L9.94 8ZM4.72 8H1.54l.38 2.67h3.02L4.72 8Zm1.9 6.67L6.38 12H9.6l-.22 2.67H6.6ZM10.94 12l-.23 2.67h1.63c.67 0 1.23-.5 1.32-1.15L13.9 12h-2.94Zm-5.9 0 .23 2.67H3.65c-.67 0-1.23-.5-1.32-1.15L2.1 12h2.94Z" fill="currentColor"></path></svg><svg viewBox="0 0 12 16" id="logoHTML"><path d="M11.22 5.75 5.97 2.5.78 5.75V1.41L6 .83l5.22.58v4.34Zm0 .58-2.1 1.3-3.14-1.97v.57L8.66 7.9l-.46.29-2.22-1.4v.58l1.75 1.1-.41.29H7.3l-1.33-.82v.58l.87.53-.89.56L.8 6.4l5.17-3.3 5.24 3.22Zm0 5.44L6 15.04.78 11.77V7.03l5.2 3.25v.59L2.43 8.64v.57L6 11.47v.6L2.43 9.85v.57L6 12.67l3.6-2.27V7.96l1.62-1.01v4.82ZM6 0 0 .66v11.58L6 16l6-3.76V.66L6 0Z" fill="currentColor"></path></svg><svg viewBox="0 0 20 20" id="ok"><path fill-rule="evenodd" clip-rule="evenodd" d="M1.4 1.4C0 2.81 0 5.07 0 9.6v.91c0 4.46 0 6.7 1.4 8.09C2.81 20 5.07 20 9.6 20h.91c4.46 0 6.7 0 8.09-1.4 1.4-1.41 1.4-3.67 1.4-8.2v-.91c0-4.46 0-6.7-1.4-8.09C17.19 0 14.93 0 10.4 0h-.91C5.03 0 2.79 0 1.4 1.4Zm8.62 8.8A3.03 3.03 0 1 0 10 4.13a3.03 3.03 0 0 0 0 6.07Zm0-4.28a1.25 1.25 0 0 1 0 2.5c-.69 0-1.25-.56-1.25-1.25a1.23 1.23 0 0 1 1.25-1.25Zm1.21 6.76a5.73 5.73 0 0 0 1.76-.72.88.88 0 0 0 .28-1.24.88.88 0 0 0-1.24-.27 3.85 3.85 0 0 1-4.08 0 .9.9 0 0 0-1.23.27.9.9 0 0 0 .3 1.22 5.8 5.8 0 0 0 1.77.72L7.1 14.35a.89.89 0 0 0 0 1.25c.18.18.4.25.63.25.24 0 .46-.09.64-.25l1.67-1.67 1.67 1.67a.89.89 0 0 0 1.25-1.25l-1.73-1.67Z" fill="currentColor"></path></svg><svg viewBox="0 0 6 10" id="pagin-arrow-next"><path fill-rule="evenodd" clip-rule="evenodd" d="M1.2 0 0 1.24 3.62 5 0 8.76 1.2 10 6 5 1.2 0Z" fill="currentColor"></path></svg><svg viewBox="0 0 6 10" id="pagin-arrow-prev"><path fill-rule="evenodd" clip-rule="evenodd" d="M4.8 0 6 1.24 2.38 5 6 8.76 4.8 10 0 5l4.8-5Z" fill="currentColor"></path></svg><svg viewBox="0 0 22 22" id="pinterest"><path d="M11 0a11 11 0 0 0-4 21.25c-.1-.87-.2-2.21.03-3.16l1.29-5.47s-.33-.66-.33-1.63c0-1.53.89-2.67 2-2.67.93 0 1.38.7 1.38 1.54 0 .95-.6 2.36-.9 3.67-.27 1.1.54 1.99 1.62 1.99 1.96 0 3.46-2.07 3.46-5.04 0-2.64-1.9-4.48-4.6-4.48A4.76 4.76 0 0 0 6 10.78c0 .94.36 1.96.82 2.5.09.12.1.21.07.32l-.3 1.25c-.05.2-.16.24-.37.15-1.38-.64-2.23-2.65-2.23-4.26 0-3.47 2.52-6.66 7.26-6.66 3.82 0 6.78 2.72 6.78 6.35 0 3.8-2.39 6.84-5.7 6.84-1.12 0-2.17-.58-2.52-1.26l-.69 2.62a12.3 12.3 0 0 1-1.37 2.88A11 11 0 1 0 11 0Z" fill="currentColor"></path></svg><svg viewBox="0 0 16 16" id="user"><path fill-rule="evenodd" clip-rule="evenodd" d="M10.67 4a2.67 2.67 0 1 1-5.34 0 2.67 2.67 0 0 1 5.34 0ZM12 4a4 4 0 1 1-8 0 4 4 0 0 1 8 0Zm-8.8 8.31A7.55 7.55 0 0 1 8 10.67c1.84 0 3.56.6 4.8 1.64A4.83 4.83 0 0 1 14.67 16H16c0-1.77-.84-3.46-2.34-4.71A8.88 8.88 0 0 0 8 9.33c-2.12 0-4.16.7-5.66 1.96A6.16 6.16 0 0 0 0 16h1.33c0-1.33.63-2.66 1.87-3.69Z" fill="currentColor"></path></svg><svg viewBox="0 0 20 20" id="vk"><path fill-rule="evenodd" clip-rule="evenodd" d="M1.4 1.4C0 2.82 0 5.08 0 9.6v.8c0 4.53 0 6.79 1.4 8.2C2.82 20 5.08 20 9.6 20h.8c4.53 0 6.79 0 8.2-1.4 1.4-1.41 1.4-3.67 1.4-8.2v-.8c0-4.53 0-6.79-1.4-8.2C17.18 0 14.92 0 10.4 0h-.8C5.07 0 2.81 0 1.4 1.4Zm1.98 4.68c.1 5.2 2.7 8.33 7.26 8.33h.26v-2.98a4.11 4.11 0 0 1 3.45 2.98h2.37a6.58 6.58 0 0 0-3.43-4.18 6.35 6.35 0 0 0 2.93-4.15h-2.15c-.47 1.65-1.85 3.15-3.17 3.3v-3.3H8.75v5.77c-1.33-.33-3.02-1.95-3.1-5.77H3.39Z" fill="currentColor"></path></svg></svg>